<svg width="256" height="51" viewBox="0 0 256 51" fill="none" xmlns="http://www.w3.org/2000/svg">
<path d="M97.6491 17.0831C98.1996 18.597 98.4749 20.1281 98.4749 21.6764V36.1273H92.901V22.0893C92.901 20.0937 92.4537 18.4421 91.5591 17.1347C90.6989 15.8272 89.3227 15.0702 87.4303 14.8638C85.9164 14.6918 84.6089 14.8982 83.5079 15.4831C82.4413 16.068 81.5983 16.911 80.979 18.012C80.3941 19.1131 80.0156 20.3861 79.8435 21.8312C79.7747 22.7946 79.7231 23.7752 79.6887 24.773C79.6543 25.8052 79.6371 26.9062 79.6371 28.0761V36.1273H74.0632V0H79.6371V11.7672C79.6371 13.3155 79.2414 15.2767 78.4501 17.6508H79.2242C79.7403 15.7584 80.6005 14.2101 81.8047 13.0058C83.009 11.8016 84.4025 11.0102 85.9852 10.6318C87.6023 10.2189 89.2022 10.2017 90.785 10.5801C92.5053 10.993 93.9504 11.8016 95.1202 13.0058C96.2901 14.1757 97.133 15.5347 97.6491 17.0831Z" fill="white"/>
<path d="M117.467 22.4505C117.157 22.6914 116.572 22.9322 115.712 23.1731C114.852 23.3795 113.716 23.6032 112.306 23.844C111.205 24.0505 109.983 24.2569 108.641 24.4633C107.54 24.6354 106.56 25.0827 105.7 25.8052C104.839 26.4934 104.409 27.3879 104.409 28.489C104.409 29.5212 104.771 30.3985 105.493 31.1211C106.216 31.8092 107.093 32.2393 108.125 32.4114C109.226 32.5146 110.172 32.5146 110.964 32.4114C111.755 32.3081 112.65 31.9813 113.648 31.4308C114.68 30.8458 115.506 30.1061 116.125 29.2115C116.779 28.3169 117.174 27.3879 117.312 26.4245C117.415 25.7708 117.467 25.0655 117.467 24.3085V22.4505ZM126.189 36.1789H122.163C121.165 36.1789 120.374 35.8865 119.789 35.3015C119.239 34.6822 118.963 33.9081 118.963 32.9791C118.963 32.2565 119.049 31.5512 119.221 30.863C119.394 30.1405 119.583 29.504 119.789 28.9535H118.963C118.585 30.0545 118.017 31.1383 117.26 32.2049C116.503 33.2715 115.626 34.1317 114.628 34.7854C113.321 35.6112 111.927 36.1789 110.448 36.4886C108.968 36.7982 107.42 36.8498 105.803 36.6434C104.633 36.5058 103.532 36.1273 102.5 35.508C101.468 34.8542 100.642 33.9941 100.022 32.9275C99.4031 31.8608 99.0934 30.6738 99.0934 29.3663C99.0934 27.3019 99.6439 25.702 100.745 24.5666C101.88 23.4311 103.343 22.657 105.132 22.2441C105.958 22.0377 106.835 21.8828 107.764 21.7796C108.693 21.642 109.553 21.5216 110.344 21.4183C111.755 21.2463 112.856 21.0915 113.648 20.9538L114.319 20.799C115.385 20.5926 116.159 20.3345 116.641 20.0248C117.123 19.6808 117.277 19.1303 117.105 18.3733C116.968 17.7196 116.624 17.1347 116.073 16.6186C115.523 16.068 114.817 15.6552 113.957 15.3799C113.131 15.0702 112.185 14.9154 111.119 14.9154C109.811 14.9154 108.676 15.1391 107.712 15.5864C106.749 16.0336 106.009 16.6358 105.493 17.3927C104.977 18.1497 104.719 18.9582 104.719 19.8184H99.2999C99.2999 18.2013 99.7472 16.6702 100.642 15.2251C101.571 13.7456 102.93 12.5585 104.719 11.664C106.508 10.7694 108.676 10.3221 111.222 10.3221C113.734 10.3221 115.884 10.7866 117.673 11.7156C119.462 12.6101 120.804 13.7972 121.699 15.2767C122.593 16.7562 123.041 18.3733 123.041 20.1281V30.0373C123.041 30.3125 123.144 30.5706 123.35 30.8114C123.591 31.0179 123.866 31.1211 124.176 31.1211H126.189V36.1789Z" fill="white"/>
<path d="M138.833 31.6888C141.035 31.6888 142.807 30.9319 144.149 29.4179C145.525 27.904 146.213 25.9428 146.213 23.5344C146.213 21.1259 145.525 19.1647 144.149 17.6508C142.807 16.1369 141.035 15.3799 138.833 15.3799C137.388 15.3799 136.114 15.7412 135.013 16.4637C133.912 17.1519 133.052 18.1153 132.433 19.3539C131.814 20.5582 131.504 21.9516 131.504 23.5344C131.504 25.9428 132.175 27.904 133.517 29.4179C134.859 30.9319 136.631 31.6888 138.833 31.6888ZM140.381 10.3221C142.893 10.3221 144.991 10.9586 146.677 12.2317C148.398 13.5047 149.671 15.1563 150.497 17.1863C151.357 19.1819 151.787 21.2979 151.787 23.5344C151.787 25.7708 151.374 27.904 150.548 29.9341C149.722 31.9297 148.467 33.564 146.781 34.837C145.095 36.1101 143.013 36.7466 140.536 36.7466C138.127 36.7466 136.218 36.2305 134.807 35.1983C133.396 34.1661 132.295 32.8414 131.504 31.2243H130.678C131.229 32.807 131.504 34.3037 131.504 35.7144V36.1273H125.93V0H131.504V9.80598C131.504 11.9392 131.229 13.952 130.678 15.8444H131.504C131.573 15.638 131.676 15.3971 131.814 15.1219C132.674 13.7112 133.775 12.5585 135.117 11.664C136.493 10.7694 138.248 10.3221 140.381 10.3221Z" fill="white"/>
<path d="M157.972 0V36.1273H152.398V0H157.972Z" fill="white"/>
<path d="M170.959 14.9154C169.548 14.9154 168.344 15.2423 167.346 15.896C166.348 16.5153 165.574 17.3239 165.024 18.3217C164.473 19.2851 164.112 20.3001 163.94 21.3667L177.978 21.4183C177.875 20.3861 177.548 19.3711 176.997 18.3733C176.447 17.3755 175.655 16.5497 174.623 15.896C173.625 15.2423 172.404 14.9154 170.959 14.9154ZM163.785 24.773C163.888 25.9084 164.181 27.0439 164.662 28.1793C165.144 29.2803 165.901 30.2265 166.933 31.0179C168 31.7748 169.342 32.1533 170.959 32.1533C172.645 32.1533 174.004 31.7576 175.036 30.9663C176.103 30.1405 176.894 29.0395 177.41 27.6632H182.829C182.279 30.0373 181.057 32.1533 179.165 34.0113C177.307 35.8348 174.589 36.7466 171.011 36.7466C168.189 36.7466 165.832 36.1101 163.94 34.837C162.082 33.5296 160.723 31.878 159.863 29.8824C159.003 27.8524 158.572 25.7364 158.572 23.5344C158.572 21.3323 159.003 19.2335 159.863 17.2379C160.723 15.2079 162.082 13.5563 163.94 12.2833C165.832 10.9758 168.189 10.3221 171.011 10.3221C173.832 10.3221 176.189 10.9758 178.081 12.2833C179.974 13.5907 181.35 15.3455 182.21 17.5475C183.105 19.7496 183.483 22.1581 183.345 24.773H163.785Z" fill="white"/>
<path d="M194.449 17.1347C194.999 16.7218 195.55 16.4465 196.1 16.3089V15.5347H182.991V10.9414H202.706V15.638C198.027 20.799 194.449 24.945 191.971 28.0761L191.404 28.6438C190.853 29.2631 190.371 29.762 189.958 30.1405C189.546 30.4846 189.15 30.691 188.771 30.7598V31.534H203.119V36.1273H182.165V31.4308C185.675 27.1987 189.15 23.001 192.591 18.8378C193.279 18.0809 193.898 17.5131 194.449 17.1347Z" fill="#3EAC91"/>
<path d="M221.514 22.4505C221.205 22.6914 220.62 22.9322 219.759 23.1731C218.899 23.3795 217.764 23.6032 216.353 23.844C215.252 24.0505 214.031 24.2569 212.689 24.4633C211.588 24.6354 210.607 25.0827 209.747 25.8052C208.887 26.4934 208.457 27.3879 208.457 28.489C208.457 29.5212 208.818 30.3985 209.541 31.1211C210.263 31.8092 211.14 32.2393 212.173 32.4114C213.274 32.5146 214.22 32.5146 215.011 32.4114C215.803 32.3081 216.697 31.9813 217.695 31.4308C218.727 30.8458 219.553 30.1061 220.172 29.2115C220.826 28.3169 221.222 27.3879 221.359 26.4245C221.463 25.7708 221.514 25.0655 221.514 24.3085V22.4505ZM230.236 36.1789H226.211C225.213 36.1789 224.422 35.8865 223.837 35.3015C223.286 34.6822 223.011 33.9081 223.011 32.9791C223.011 32.2565 223.097 31.5512 223.269 30.863C223.441 30.1405 223.63 29.504 223.837 28.9535H223.011C222.632 30.0545 222.065 31.1383 221.308 32.2049C220.551 33.2715 219.673 34.1317 218.676 34.7854C217.368 35.6112 215.975 36.1789 214.495 36.4886C213.016 36.7982 211.467 36.8498 209.85 36.6434C208.68 36.5058 207.579 36.1273 206.547 35.508C205.515 34.8542 204.689 33.9941 204.07 32.9275C203.451 31.8608 203.141 30.6738 203.141 29.3663C203.141 27.3019 203.691 25.702 204.792 24.5666C205.928 23.4311 207.39 22.657 209.179 22.2441C210.005 22.0377 210.882 21.8828 211.811 21.7796C212.74 21.642 213.601 21.5216 214.392 21.4183C215.803 21.2463 216.904 21.0915 217.695 20.9538L218.366 20.799C219.433 20.5926 220.207 20.3345 220.688 20.0248C221.17 19.6808 221.325 19.1303 221.153 18.3733C221.015 17.7196 220.671 17.1347 220.121 16.6186C219.57 16.068 218.865 15.6552 218.005 15.3799C217.179 15.0702 216.233 14.9154 215.166 14.9154C213.859 14.9154 212.723 15.1391 211.76 15.5864C210.796 16.0336 210.057 16.6358 209.541 17.3927C209.024 18.1497 208.766 18.9582 208.766 19.8184H203.347C203.347 18.2013 203.795 16.6702 204.689 15.2251C205.618 13.7456 206.977 12.5585 208.766 11.664C210.556 10.7694 212.723 10.3221 215.269 10.3221C217.781 10.3221 219.931 10.7866 221.721 11.7156C223.51 12.6101 224.852 13.7972 225.746 15.2767C226.641 16.7562 227.088 18.3733 227.088 20.1281V30.0373C227.088 30.3125 227.191 30.5706 227.398 30.8114C227.639 31.0179 227.914 31.1211 228.224 31.1211H230.236V36.1789Z" fill="#3EAC91"/>
<path d="M250.209 23.5344C250.209 21.1259 249.538 19.1647 248.196 17.6508C246.889 16.1369 245.117 15.3799 242.88 15.3799C241.435 15.3799 240.145 15.724 239.009 16.4121C237.908 17.1003 237.048 18.0637 236.429 19.3023C235.844 20.541 235.551 21.9516 235.551 23.5344C235.551 25.9428 236.222 27.904 237.564 29.4179C238.906 30.9319 240.678 31.6888 242.88 31.6888C244.325 31.6888 245.598 31.3447 246.699 30.6566C247.835 29.9685 248.695 29.0051 249.28 27.7664C249.899 26.5278 250.209 25.1171 250.209 23.5344ZM255.783 23.5344C255.783 25.7708 255.37 27.904 254.544 29.9341C253.718 31.9297 252.445 33.564 250.725 34.837C249.039 36.1101 246.94 36.7466 244.428 36.7466C242.089 36.7466 240.214 36.2305 238.803 35.1983C237.392 34.1317 236.308 32.807 235.551 31.2243H234.726C235.276 33.1167 235.551 35.1295 235.551 37.2627V50.475H229.977V10.9414H235.551V11.3027C235.551 12.0596 235.465 12.8338 235.293 13.6252C235.121 14.4165 234.932 15.1563 234.726 15.8444H235.551C235.62 15.638 235.723 15.3971 235.861 15.1219C236.412 14.2273 237.048 13.4359 237.771 12.7478C238.528 12.0252 239.474 11.4403 240.609 10.993C241.745 10.5457 243.069 10.3221 244.583 10.3221C247.061 10.3221 249.142 10.9586 250.828 12.2317C252.514 13.5047 253.753 15.1563 254.544 17.1863C255.37 19.1819 255.783 21.2979 255.783 23.5344Z" fill="#3EAC91"/>
<rect y="3.95459" width="61.6644" height="32.1727" rx="16.0864" fill="#3EAC91"/>
<circle cx="17.4269" cy="20.041" r="5.36212" fill="#F9F9F9"/>
<circle cx="30.8322" cy="20.041" r="5.36212" fill="#F9F9F9"/>
<circle cx="44.2375" cy="20.041" r="5.36212" fill="#F9F9F9"/>
</svg>
